<svg width="1280" height="360" viewBox="0 0 1280 360" fill="none" xmlns="http://www.w3.org/2000/svg">
  <defs>
    <linearGradient id="bg" x1="64" y1="32" x2="1210" y2="388" gradientUnits="userSpaceOnUse">
      <stop stop-color="#0F131A"/>
      <stop offset="1" stop-color="#0B0E14"/>
    </linearGradient>
    <linearGradient id="glow" x1="0" y1="0" x2="1" y2="1">
      <stop stop-color="#78F0DB"/>
      <stop offset="1" stop-color="#5D79FF"/>
    </linearGradient>
    <filter id="blur" x="-30%" y="-30%" width="160%" height="160%">
      <feGaussianBlur stdDeviation="24"/>
    </filter>
  </defs>

  <rect width="1280" height="360" rx="28" fill="url(#bg)"/>

  <g opacity="0.12">
    <path d="M80 0V360" stroke="#F4EEDF"/>
    <path d="M360 0V360" stroke="#F4EEDF"/>
    <path d="M640 0V360" stroke="#F4EEDF"/>
    <path d="M920 0V360" stroke="#F4EEDF"/>
    <path d="M0 114H1280" stroke="#F4EEDF"/>
    <path d="M0 228H1280" stroke="#F4EEDF"/>
  </g>

  <circle cx="1068" cy="72" r="78" fill="#1AE0BC" opacity="0.08" filter="url(#blur)"/>
  <circle cx="242" cy="318" r="68" fill="#5D79FF" opacity="0.10" filter="url(#blur)"/>

  <rect x="74" y="56" width="12" height="214" rx="6" fill="url(#glow)"/>
  <rect x="1008" y="54" width="180" height="88" rx="16" fill="#101720" stroke="#243040"/>
  <path d="M1028 78H1168" stroke="#79F0DB" opacity="0.55"/>
  <path d="M1028 100H1138" stroke="#5D79FF" opacity="0.55"/>
  <path d="M1028 122H1102" stroke="#E2AC6E" opacity="0.55"/>
  <rect x="1028" y="182" width="160" height="110" rx="16" fill="#101720" stroke="#243040"/>
  <text x="1052" y="218" fill="#E2AC6E" font-family="Consolas, Menlo, monospace" font-size="16" letter-spacing="2">FOCUS</text>
  <text x="1052" y="250" fill="#F8F2E6" font-family="Segoe UI, Arial, sans-serif" font-size="18" font-weight="700">Drivers</text>
  <text x="1052" y="274" fill="#F8F2E6" font-family="Segoe UI, Arial, sans-serif" font-size="18" font-weight="700">Runtime</text>
  <text x="1052" y="298" fill="#79F0DB" font-family="Segoe UI, Arial, sans-serif" font-size="18" font-weight="700">Optimization</text>

  <text x="118" y="112" fill="#F8F2E6" font-family="Segoe UI, Arial, sans-serif" font-size="58" font-weight="800">Li Hucheng</text>
  <text x="120" y="154" fill="#79F0DB" font-family="Consolas, Menlo, monospace" font-size="20" letter-spacing="3">LOW-LEVEL SOFTWARE / DRIVER DEVELOPMENT</text>
  <text x="120" y="184" fill="#7AA9FF" font-family="Consolas, Menlo, monospace" font-size="18" letter-spacing="2">CUDA RUNTIME / OPERATOR OPTIMIZATION / SPEECH AI</text>

  <text x="120" y="232" fill="#F7F1E3" font-family="Segoe UI, Arial, sans-serif" font-size="28" font-weight="700">Build software that turns low-level compute capability</text>
  <text x="120" y="266" fill="#F7F1E3" font-family="Segoe UI, Arial, sans-serif" font-size="28" font-weight="700">into usable engineering infrastructure.</text>

  <g font-family="Consolas, Menlo, monospace" font-size="16" font-weight="700">
    <rect x="120" y="300" width="226" height="38" rx="8" fill="#20242E"/>
    <text x="145" y="324" fill="#FBF7EF">DRIVER DEVELOPMENT</text>

    <rect x="360" y="300" width="170" height="38" rx="8" fill="#1E4F67"/>
    <text x="388" y="324" fill="#FBF7EF">CUDA RUNTIME</text>

    <rect x="544" y="300" width="254" height="38" rx="8" fill="#275E78"/>
    <text x="571" y="324" fill="#FBF7EF">OPERATOR OPTIMIZATION</text>

    <rect x="812" y="300" width="148" height="38" rx="8" fill="#686FDD"/>
    <text x="843" y="324" fill="#FBF7EF">SPEECH AI</text>
  </g>
</svg>
