<svg width="1280" height="420" viewBox="0 0 1280 420" fill="none" xmlns="http://www.w3.org/2000/svg">
  <defs>
    <linearGradient id="bg" x1="64" y1="32" x2="1210" y2="388" gradientUnits="userSpaceOnUse">
      <stop stop-color="#0F131A"/>
      <stop offset="1" stop-color="#0B0E14"/>
    </linearGradient>
    <linearGradient id="glow" x1="0" y1="0" x2="1" y2="1">
      <stop stop-color="#78F0DB"/>
      <stop offset="1" stop-color="#5D79FF"/>
    </linearGradient>
    <filter id="blur" x="-30%" y="-30%" width="160%" height="160%">
      <feGaussianBlur stdDeviation="24"/>
    </filter>
  </defs>

  <rect width="1280" height="420" rx="28" fill="url(#bg)"/>

  <g opacity="0.12">
    <path d="M80 0V420" stroke="#F4EEDF"/>
    <path d="M360 0V420" stroke="#F4EEDF"/>
    <path d="M640 0V420" stroke="#F4EEDF"/>
    <path d="M920 0V420" stroke="#F4EEDF"/>
    <path d="M0 114H1280" stroke="#F4EEDF"/>
    <path d="M0 228H1280" stroke="#F4EEDF"/>
    <path d="M0 342H1280" stroke="#F4EEDF"/>
  </g>

  <circle cx="1104" cy="68" r="88" fill="#1AE0BC" opacity="0.09" filter="url(#blur)"/>
  <circle cx="262" cy="356" r="72" fill="#5D79FF" opacity="0.11" filter="url(#blur)"/>

  <rect x="72" y="62" width="12" height="242" rx="6" fill="url(#glow)"/>

  <text x="110" y="118" fill="#F8F2E6" font-family="Segoe UI, Arial, sans-serif" font-size="60" font-weight="800">Li Hucheng</text>
  <text x="112" y="162" fill="#79F0DB" font-family="Consolas, Menlo, monospace" font-size="21" letter-spacing="3">LOW-LEVEL SOFTWARE / DRIVER DEVELOPMENT / CUDA / SPEECH AI</text>

  <text x="112" y="220" fill="#F7F1E3" font-family="Segoe UI, Arial, sans-serif" font-size="30" font-weight="700">Low-level software, drivers, CUDA runtime.</text>
  <text x="112" y="262" fill="#D4C9B1" font-family="Segoe UI, Arial, sans-serif" font-size="21">Operator optimization, systems infrastructure,</text>
  <text x="112" y="292" fill="#D4C9B1" font-family="Segoe UI, Arial, sans-serif" font-size="21">and speech AI research built for real engineering use.</text>

  <rect x="944" y="52" width="252" height="108" rx="18" fill="#111822" stroke="#263143"/>
  <text x="972" y="88" fill="#E2AC6E" font-family="Consolas, Menlo, monospace" font-size="18" letter-spacing="2">EDUCATION</text>
  <text x="972" y="122" fill="#F8F2E6" font-family="Segoe UI, Arial, sans-serif" font-size="26" font-weight="800">Hunan University</text>
  <text x="972" y="150" fill="#79F0DB" font-family="Segoe UI, Arial, sans-serif" font-size="18" font-weight="700">AI Graduate Study</text>

  <g font-family="Consolas, Menlo, monospace" font-size="18" font-weight="700">
    <rect x="112" y="340" width="184" height="38" rx="8" fill="#20242E"/>
    <text x="140" y="365" fill="#FBF7EF">DRIVER DEVELOPMENT</text>

    <rect x="308" y="340" width="152" height="38" rx="8" fill="#1E4F67"/>
    <text x="337" y="365" fill="#FBF7EF">CUDA RUNTIME</text>

    <rect x="472" y="340" width="208" height="38" rx="8" fill="#275E78"/>
    <text x="501" y="365" fill="#FBF7EF">OPERATOR OPTIMIZATION</text>

    <rect x="692" y="340" width="136" height="38" rx="8" fill="#686FDD"/>
    <text x="724" y="365" fill="#FBF7EF">SPEECH AI</text>
  </g>
</svg>
