<svg width="1280" height="640" viewBox="0 0 1280 640" fill="none" xmlns="http://www.w3.org/2000/svg">
  <defs>
    <linearGradient id="bg" x1="80" y1="48" x2="1180" y2="590" gradientUnits="userSpaceOnUse">
      <stop stop-color="#11151D"/>
      <stop offset="1" stop-color="#0B0E14"/>
    </linearGradient>
    <linearGradient id="accent" x1="0" y1="0" x2="1" y2="1">
      <stop stop-color="#94F4E0"/>
      <stop offset="1" stop-color="#5FA8FF"/>
    </linearGradient>
    <filter id="soft" x="-20%" y="-20%" width="140%" height="140%">
      <feGaussianBlur stdDeviation="18"/>
    </filter>
  </defs>

  <rect width="1280" height="640" rx="32" fill="url(#bg)"/>
  <g opacity="0.14">
    <path d="M0 140H1280" stroke="#F2EBD6"/>
    <path d="M0 280H1280" stroke="#F2EBD6"/>
    <path d="M0 420H1280" stroke="#F2EBD6"/>
    <path d="M220 0V640" stroke="#F2EBD6"/>
    <path d="M420 0V640" stroke="#F2EBD6"/>
    <path d="M620 0V640" stroke="#F2EBD6"/>
    <path d="M820 0V640" stroke="#F2EBD6"/>
    <path d="M1020 0V640" stroke="#F2EBD6"/>
  </g>

  <circle cx="1060" cy="120" r="120" fill="#28D7B5" opacity="0.12" filter="url(#soft)"/>
  <circle cx="220" cy="520" r="130" fill="#5678FF" opacity="0.10" filter="url(#soft)"/>

  <rect x="74" y="76" width="144" height="144" rx="28" fill="#111B2B" stroke="#2A415F"/>
  <text x="94" y="178" fill="#F3F0E6" font-family="Segoe UI, Arial, sans-serif" font-size="86" font-weight="800">LK</text>
  <rect x="88" y="90" width="18" height="88" fill="#94F4E0"/>
  <rect x="112" y="90" width="18" height="88" fill="#F3F0E6"/>

  <text x="272" y="136" fill="#FBF6EA" font-family="Segoe UI, Arial, sans-serif" font-size="66" font-weight="800">Li Hucheng</text>
  <text x="272" y="196" fill="#77F0D6" font-family="Consolas, Menlo, monospace" font-size="29" letter-spacing="6">SYSTEMS / CUDA / SPEECH AI</text>

  <text x="272" y="294" fill="#FBF6EA" font-family="Segoe UI, Arial, sans-serif" font-size="36" font-weight="700">Serious systems work, with room for CUDA and AI.</text>
  <text x="272" y="352" fill="#D4C8B0" font-family="Segoe UI, Arial, sans-serif" font-size="24">Linux drivers, CUDA runtime, operator optimization, PCIe/DMA, speech-centric research.</text>
  <text x="272" y="394" fill="#D4C8B0" font-family="Segoe UI, Arial, sans-serif" font-size="24">Build infrastructure that turns low-level chip software into usable developer-facing platforms.</text>

  <rect x="936" y="82" width="270" height="210" rx="26" fill="#101720" stroke="#273243"/>
  <text x="970" y="126" fill="#D7A56B" font-family="Segoe UI, Arial, sans-serif" font-size="24" letter-spacing="2">EDUCATION</text>
  <text x="970" y="184" fill="#FBF6EA" font-family="Segoe UI, Arial, sans-serif" font-size="32" font-weight="800">Hunan</text>
  <text x="970" y="224" fill="#FBF6EA" font-family="Segoe UI, Arial, sans-serif" font-size="32" font-weight="800">University</text>
  <text x="970" y="268" fill="#27D8B6" font-family="Segoe UI, Arial, sans-serif" font-size="24" font-weight="700">(AI Graduate Study)</text>

  <g font-family="Consolas, Menlo, monospace" font-size="24" font-weight="700">
    <rect x="186" y="514" width="146" height="46" fill="#57595D"/>
    <text x="222" y="545" fill="#FAF7EF">SYSTEMS</text>

    <rect x="340" y="514" width="216" height="46" fill="#20242E"/>
    <text x="370" y="545" fill="#FAF7EF">LINUX DRIVERS</text>

    <rect x="564" y="514" width="148" height="46" fill="#6F5340"/>
    <text x="603" y="545" fill="#FAF7EF">COMPUTE</text>

    <rect x="720" y="514" width="324" height="46" fill="#1E5974"/>
    <text x="756" y="545" fill="#FAF7EF">CUDA RUNTIME &amp; OPERATORS</text>

    <rect x="1052" y="514" width="160" height="46" fill="#6B72DB"/>
    <text x="1084" y="545" fill="#FAF7EF">SPEECH AI</text>
  </g>

  <text x="76" y="604" fill="#8893A3" font-family="Consolas, Menlo, monospace" font-size="18">profile hero / github-native asset / 2026</text>
</svg>
