<svg width="1280" height="420" viewBox="0 0 1280 420" fill="none" xmlns="http://www.w3.org/2000/svg">
  <defs>
    <linearGradient id="bg" x1="64" y1="32" x2="1210" y2="388" gradientUnits="userSpaceOnUse">
      <stop stop-color="#0F131A"/>
      <stop offset="1" stop-color="#0B0E14"/>
    </linearGradient>
    <linearGradient id="glow" x1="0" y1="0" x2="1" y2="1">
      <stop stop-color="#78F0DB"/>
      <stop offset="1" stop-color="#5D79FF"/>
    </linearGradient>
    <filter id="blur" x="-30%" y="-30%" width="160%" height="160%">
      <feGaussianBlur stdDeviation="24"/>
    </filter>
  </defs>

  <rect width="1280" height="420" rx="28" fill="url(#bg)"/>

  <g opacity="0.12">
    <path d="M80 0V420" stroke="#F4EEDF"/>
    <path d="M360 0V420" stroke="#F4EEDF"/>
    <path d="M640 0V420" stroke="#F4EEDF"/>
    <path d="M920 0V420" stroke="#F4EEDF"/>
    <path d="M0 114H1280" stroke="#F4EEDF"/>
    <path d="M0 228H1280" stroke="#F4EEDF"/>
    <path d="M0 342H1280" stroke="#F4EEDF"/>
  </g>

  <circle cx="1088" cy="92" r="92" fill="#1AE0BC" opacity="0.10" filter="url(#blur)"/>
  <circle cx="230" cy="356" r="80" fill="#5D79FF" opacity="0.10" filter="url(#blur)"/>

  <rect x="76" y="68" width="10" height="220" rx="5" fill="url(#glow)"/>

  <text x="116" y="118" fill="#F8F2E6" font-family="Segoe UI, Arial, sans-serif" font-size="64" font-weight="800">Li Hucheng</text>
  <text x="118" y="164" fill="#79F0DB" font-family="Consolas, Menlo, monospace" font-size="24" letter-spacing="4">SYSTEMS / CUDA / SPEECH AI</text>

  <text x="118" y="228" fill="#F7F1E3" font-family="Segoe UI, Arial, sans-serif" font-size="32" font-weight="700">Build low-level compute software that people can actually use.</text>
  <text x="118" y="274" fill="#D4C9B1" font-family="Segoe UI, Arial, sans-serif" font-size="22">CUDA runtime, operator optimization, Linux-facing systems work,</text>
  <text x="118" y="306" fill="#D4C9B1" font-family="Segoe UI, Arial, sans-serif" font-size="22">and speech AI research with a strong engineering bias.</text>

  <rect x="920" y="76" width="276" height="138" rx="20" fill="#111822" stroke="#263143"/>
  <text x="952" y="118" fill="#E2AC6E" font-family="Consolas, Menlo, monospace" font-size="20" letter-spacing="2">EDUCATION</text>
  <text x="952" y="160" fill="#F8F2E6" font-family="Segoe UI, Arial, sans-serif" font-size="30" font-weight="800">Hunan University</text>
  <text x="952" y="196" fill="#79F0DB" font-family="Segoe UI, Arial, sans-serif" font-size="22" font-weight="700">AI Graduate Study</text>

  <g font-family="Consolas, Menlo, monospace" font-size="18" font-weight="700">
    <rect x="118" y="346" width="150" height="36" rx="8" fill="#20242E"/>
    <text x="146" y="370" fill="#FBF7EF">CUDA RUNTIME</text>

    <rect x="282" y="346" width="200" height="36" rx="8" fill="#235D79"/>
    <text x="311" y="370" fill="#FBF7EF">OPERATOR OPTIMIZATION</text>

    <rect x="496" y="346" width="126" height="36" rx="8" fill="#6C5640"/>
    <text x="529" y="370" fill="#FBF7EF">SYSTEMS</text>

    <rect x="636" y="346" width="136" height="36" rx="8" fill="#686FDD"/>
    <text x="667" y="370" fill="#FBF7EF">SPEECH AI</text>
  </g>
</svg>
